<svg width="17" height="16" xmlns="http://www.w3.org/2000/svg" xmlns:xlink="http://www.w3.org/1999/xlink" xmlns:svgjs="http://svgjs.com/svgjs" viewBox="0.5 0 16 16" fill="#d1b219"><svg xmlns="http://www.w3.org/2000/svg" width="17" height="16" viewBox="0.792 0.038 15.424 15.424"><path paint-order="stroke fill markers" fill-rule="evenodd" d="M8.504.038c-.332 0-.665.224-.917.672L1.004 13.832c-.504.896-.075 1.63.953 1.63h13.094c1.029 0 1.458-.734.954-1.63L9.42.71C9.17.262 8.837.038 8.504.038zm0 1.397l6.464 12.882H2.04L8.504 1.435zM9.47 12.57a.964.964 0 1 1-1.93 0 .964.964 0 0 1 1.93 0zm-.965-1.928a.964.964 0 0 1-.964-.964V6.786a.964.964 0 0 1 1.929 0v2.892a.964.964 0 0 1-.965.964z"/></svg></svg>