<?xml version="1.0" encoding="utf-8"?>
<!-- Generator: Adobe Illustrator 21.0.0, SVG Export Plug-In . SVG Version: 6.00 Build 0)  -->
<svg version="1.1" id="Layer_1" xmlns="http://www.w3.org/2000/svg" xmlns:xlink="http://www.w3.org/1999/xlink" x="0px" y="0px"
	 viewBox="0 0 841.9 595.3" style="enable-background:new 0 0 841.9 595.3;" xml:space="preserve">
<style type="text/css">
	.st0{fill:#A2D7E2;}
	.st1{opacity:0.59;fill:#FFFFFF;enable-background:new    ;}
	.st2{fill:#253C40;}
	.st3{fill:#FFFFFF;}
	.st4{fill:none;stroke:#FFFFFF;stroke-width:3.6335;stroke-miterlimit:10;}
	.st5{fill:none;stroke:#253C40;stroke-width:2.754;stroke-miterlimit:10;}
	.st6{fill:#556179;}
</style>
<g>
	
		<ellipse transform="matrix(0.9617 -0.274 0.274 0.9617 -60.8867 83.4572)" class="st0" cx="268.3" cy="259.7" rx="106.6" ry="106.6"/>
	<rect x="316.5" y="174.8" class="st1" width="58.5" height="158.2"/>
	<rect x="155.9" y="191.9" class="st1" width="56.8" height="187.3"/>
	
		<rect x="105.9" y="238.5" transform="matrix(0.7071 -0.7071 0.7071 0.7071 -108.9606 265.9409)" class="st1" width="321.3" height="51.9"/>
	<circle class="st2" cx="265.2" cy="262.5" r="56.8"/>
	<circle class="st3" cx="285.6" cy="212.3" r="20.4"/>
	<path class="st4" d="M321.9,262.5c0,31.3-25.3,56.7-56.7,56.7"/>
	<path class="st5" d="M176.1,354c-52.1-50.9-53-134.5-2.1-186.6s134.5-53,186.6-2.1"/>
	<path class="st2" d="M341.3,149.7l-15-8.6c-7.4-3.6-14.9-6.5-22.7-8.6l12,45.6l45.7-12.1C355.4,160,348.7,154.6,341.3,149.7z"/>
</g>
<g>
	<path class="st6" d="M140.5,449.2v-48.7h4v48.7H140.5z"/>
	<path class="st6" d="M162.1,449.2v-34.7h3.4l0.3,3.5c1-1.2,2.3-2.2,3.8-3.1c1.5-0.9,3.1-1.3,4.9-1.3c1,0,1.8,0,2.6,0.1
		c0.8,0.1,1.4,0.2,1.9,0.4l-0.7,3.6c-1.1-0.4-2.4-0.6-4.1-0.6c-1.6,0-3.1,0.5-4.6,1.5c-1.5,1-2.7,2-3.7,3.2v27.4H162.1z"/>
	<path class="st6" d="M192.4,407c-0.7,0-1.4-0.3-1.9-0.9c-0.5-0.6-0.8-1.4-0.8-2.3c0-0.9,0.3-1.7,0.8-2.3s1.1-0.9,1.9-0.9
		c0.8,0,1.4,0.3,2,0.9c0.5,0.6,0.8,1.4,0.8,2.3c0,1-0.3,1.8-0.8,2.4C193.9,406.7,193.2,407,192.4,407z M190.5,449.2v-34.7h3.9v34.7
		H190.5z"/>
	<path class="st6" d="M234.8,449.2l-0.4-3.1c-1.1,1.2-2.5,2.2-4.1,2.8c-1.6,0.7-3.5,1-5.7,1c-2.3,0-4.4-0.4-6.3-1.3
		c-1.9-0.9-3.5-2.1-4.8-3.7c-1.3-1.6-2.3-3.5-3-5.8c-0.7-2.3-1.1-4.8-1.1-7.6c0-2.6,0.4-5,1.2-7.3c0.8-2.2,1.9-4.1,3.3-5.7
		c1.4-1.6,3.1-2.9,5.1-3.8c2-0.9,4.2-1.4,6.6-1.4c2.2,0,4,0.2,5.4,0.7c1.4,0.5,2.5,1,3.5,1.6v-15.3h3.8v48.7H234.8z M234.3,419.6
		c-0.8-0.8-2-1.4-3.5-2c-1.5-0.6-3.2-0.8-4.9-0.8c-1.9,0-3.7,0.4-5.3,1.1c-1.6,0.8-2.9,1.8-4,3.1c-1.1,1.3-2,2.9-2.6,4.7
		c-0.6,1.8-0.9,3.8-0.9,6c0,4.5,1,8.2,3.1,10.9c2.1,2.7,5,4.1,8.7,4.1c2,0,3.8-0.4,5.4-1.2c1.6-0.8,2.9-1.9,4-3.3V419.6z"/>
	<path class="st6" d="M261.8,448.5c-1.9-1.1-3.5-2.5-4.8-4.2c-1.3-1.7-2.3-3.7-3-5.9c-0.7-2.2-1-4.5-1-6.9c0-2.3,0.3-4.6,1-6.8
		c0.7-2.2,1.6-4.1,2.9-5.8c1.3-1.7,2.9-3,4.8-4c1.9-1,4.2-1.5,6.8-1.5c2.5,0,4.8,0.5,6.7,1.5c1.9,1,3.6,2.4,4.9,4.1s2.3,3.6,3,5.8
		c0.7,2.2,1,4.5,1,6.8c0,2.4-0.3,4.7-1,6.9c-0.7,2.2-1.6,4.2-3,5.8s-2.9,3-4.9,4.1c-1.9,1-4.2,1.5-6.7,1.5
		C266,450,263.8,449.5,261.8,448.5z M259.8,442.1c1,1.4,2.2,2.6,3.6,3.4c1.5,0.9,3.2,1.3,5.1,1.3c2,0,3.7-0.5,5.2-1.4
		c1.5-0.9,2.7-2.1,3.6-3.5c1-1.4,1.7-3.1,2.2-4.9c0.5-1.8,0.7-3.6,0.7-5.5c0-1.8-0.2-3.7-0.7-5.4c-0.5-1.8-1.2-3.4-2.2-4.8
		c-1-1.4-2.2-2.5-3.6-3.4c-1.5-0.9-3.2-1.3-5.2-1.3c-2,0-3.7,0.4-5.2,1.3c-1.5,0.9-2.7,2-3.6,3.4c-1,1.4-1.7,3-2.2,4.7
		c-0.5,1.8-0.7,3.6-0.7,5.4c0,1.9,0.2,3.8,0.7,5.6C258.1,439,258.8,440.6,259.8,442.1z"/>
	<path class="st6" d="M299.1,449.2v-48.7h3.8v48.7H299.1z"/>
	<path class="st6" d="M326.7,448.5c-1.9-1.1-3.5-2.5-4.8-4.2c-1.3-1.7-2.3-3.7-3-5.9c-0.7-2.2-1-4.5-1-6.9c0-2.3,0.3-4.6,1-6.8
		c0.7-2.2,1.6-4.1,2.9-5.8c1.3-1.7,2.9-3,4.8-4c1.9-1,4.2-1.5,6.8-1.5c2.5,0,4.8,0.5,6.7,1.5s3.6,2.4,4.9,4.1s2.3,3.6,3,5.8
		s1,4.5,1,6.8c0,2.4-0.3,4.7-1,6.9c-0.7,2.2-1.6,4.2-3,5.8s-2.9,3-4.9,4.1c-1.9,1-4.2,1.5-6.7,1.5
		C330.9,450,328.7,449.5,326.7,448.5z M324.7,442.1c1,1.4,2.2,2.6,3.6,3.4s3.2,1.3,5.1,1.3c2,0,3.7-0.5,5.2-1.4
		c1.5-0.9,2.7-2.1,3.6-3.5c1-1.4,1.7-3.1,2.2-4.9c0.5-1.8,0.7-3.6,0.7-5.5c0-1.8-0.2-3.7-0.7-5.4c-0.5-1.8-1.2-3.4-2.2-4.8
		c-1-1.4-2.2-2.5-3.6-3.4c-1.5-0.9-3.2-1.3-5.2-1.3c-2,0-3.7,0.4-5.2,1.3c-1.5,0.9-2.7,2-3.6,3.4c-1,1.4-1.7,3-2.2,4.7
		c-0.5,1.8-0.7,3.6-0.7,5.4c0,1.9,0.2,3.8,0.7,5.6C323,439,323.7,440.6,324.7,442.1z"/>
	<path class="st6" d="M388.6,417.6c0.8,0.8,1.5,1.9,2.2,3.2c0.6,1.3,0.9,2.8,0.9,4.5c0,1.9-0.4,3.6-1.2,5.1
		c-0.8,1.5-1.8,2.8-3.1,3.8c-1.3,1-2.8,1.8-4.6,2.4c-1.8,0.6-3.6,0.8-5.5,0.8c-1,0-1.9-0.1-2.8-0.2c-0.9-0.1-1.7-0.3-2.3-0.4
		c-1,0.2-1.9,0.6-2.7,1.1c-0.8,0.5-1.2,1.1-1.2,2c0,1.1,0.7,1.9,2.2,2.4c1.5,0.5,3.9,0.8,7.4,1c2,0.1,3.9,0.3,5.7,0.5
		c1.8,0.2,3.3,0.5,4.4,0.9c2.3,0.7,4,1.7,5.1,3.1c1.1,1.4,1.6,3.2,1.6,5.4c0,3.5-1.4,6.2-4.2,8c-2.8,1.8-6.6,2.7-11.5,2.7
		c-5.5,0-9.8-0.9-12.7-2.6s-4.4-4.4-4.4-8c0-2.2,0.5-4,1.6-5.3c1.1-1.4,2.4-2.4,4-3.2c-0.8-0.4-1.6-0.9-2.2-1.6
		c-0.6-0.7-0.9-1.6-0.9-2.8c0-1.3,0.5-2.3,1.4-3.1c0.9-0.8,2-1.4,3.4-1.8c-0.7-0.4-1.4-0.9-2.1-1.5c-0.7-0.6-1.4-1.3-1.9-2.1
		s-1.1-1.7-1.4-2.8c-0.4-1.1-0.5-2.3-0.5-3.7c0-1.8,0.4-3.5,1.1-5c0.8-1.5,1.8-2.7,3.1-3.7c1.3-1,2.8-1.8,4.5-2.3
		c1.7-0.5,3.5-0.8,5.4-0.8c1.8,0,3.5,0.2,4.8,0.5c1.4,0.4,2.6,0.8,3.7,1.4l4.3-4.7l2.6,2.3L388.6,417.6z M373.9,446.2
		c-1.4-0.1-2.4-0.3-3.1-0.4c-1.5,0.5-2.7,1.4-3.8,2.6c-1,1.2-1.6,2.7-1.6,4.6c0,1.4,0.3,2.6,1,3.6c0.7,1,1.6,1.8,2.8,2.4
		c1.2,0.6,2.6,1.1,4.3,1.4c1.7,0.3,3.5,0.4,5.5,0.4c3.7,0,6.7-0.6,8.9-1.8c2.2-1.2,3.3-3,3.3-5.5c0-2.4-0.9-4-2.7-5
		c-0.8-0.5-2.1-0.9-3.8-1.2c-1.7-0.3-4-0.5-6.8-0.7C376.6,446.5,375.2,446.4,373.9,446.2z M366.9,425.4c0,2.7,0.9,4.8,2.8,6.4
		c1.9,1.6,4.4,2.4,7.4,2.4c1.3,0,2.6-0.2,3.9-0.5c1.3-0.3,2.5-0.8,3.5-1.6c1-0.7,1.9-1.7,2.5-2.8c0.6-1.2,0.9-2.6,0.9-4.2
		c0-1.5-0.3-2.7-1-3.8c-0.7-1.1-1.5-1.9-2.5-2.6c-1-0.7-2.2-1.1-3.4-1.5c-1.2-0.3-2.5-0.5-3.7-0.5c-1.4,0-2.7,0.2-3.9,0.6
		c-1.3,0.4-2.4,0.9-3.4,1.7c-1,0.7-1.8,1.6-2.3,2.7C367.2,422.8,366.9,424,366.9,425.4z"/>
	<path class="st6" d="M409.1,407c-0.7,0-1.3-0.3-1.9-0.9c-0.5-0.6-0.8-1.4-0.8-2.3c0-0.9,0.3-1.7,0.8-2.3c0.5-0.6,1.1-0.9,1.9-0.9
		c0.8,0,1.4,0.3,2,0.9s0.8,1.4,0.8,2.3c0,1-0.3,1.8-0.8,2.4C410.6,406.7,409.9,407,409.1,407z M407.2,449.2v-34.7h3.9v34.7H407.2z"
		/>
	<path class="st6" d="M447.6,449.2l-0.3-3c-1.2,1.2-2.6,2.1-4.2,2.8c-1.6,0.7-3.6,1-5.9,1c-1.7,0-3.2-0.2-4.6-0.7
		c-1.4-0.5-2.6-1.1-3.7-2c-1-0.9-1.9-2-2.4-3.4c-0.6-1.3-0.9-2.9-0.9-4.6c0-2.5,0.6-4.6,1.9-6.3c1.3-1.7,3-3,5-4c2-1,4.4-1.7,6.9-2
		c2.6-0.4,5.2-0.6,7.8-0.7v-1.5c0-2.7-0.7-4.7-2-6.1s-3.3-2-5.8-2c-1.8,0-3.5,0.4-4.9,1.2c-1.4,0.8-2.6,1.7-3.5,2.8l-2.6-2
		c1.2-1.5,2.7-2.7,4.5-3.7c1.8-1,4-1.5,6.8-1.5c7.7,0,11.5,3.9,11.5,11.7v24H447.6z M447.2,429.7c-2,0-4.1,0.2-6.2,0.4
		c-2.1,0.2-4,0.7-5.8,1.4c-1.7,0.7-3.1,1.7-4.2,3c-1.1,1.3-1.6,2.9-1.6,5c0,1.3,0.2,2.4,0.7,3.3c0.5,0.9,1.1,1.7,1.9,2.3
		c0.8,0.6,1.7,1.1,2.7,1.4c1,0.3,2,0.4,3,0.4c1.9,0,3.7-0.4,5.4-1.2c1.7-0.8,3-1.8,4.2-2.9V429.7z"/>
	<path class="st0" d="M468.6,450c-0.8,0-1.5-0.3-2.1-1c-0.6-0.7-0.8-1.5-0.8-2.5s0.3-1.8,0.8-2.5c0.6-0.7,1.3-1,2.1-1
		c0.8,0,1.5,0.4,2.1,1.1c0.6,0.7,0.8,1.5,0.8,2.4c0,0.9-0.3,1.7-0.8,2.4C470.1,449.7,469.5,450,468.6,450z"/>
	<path class="st6" d="M491.6,448.5c-1.9-1.1-3.5-2.5-4.8-4.2c-1.3-1.7-2.3-3.7-3-5.9c-0.7-2.2-1-4.5-1-6.9c0-2.3,0.3-4.6,1-6.8
		c0.7-2.2,1.6-4.1,2.9-5.8c1.3-1.7,2.9-3,4.8-4c1.9-1,4.2-1.5,6.8-1.5c2.5,0,4.8,0.5,6.7,1.5s3.6,2.4,4.9,4.1s2.3,3.6,3,5.8
		s1,4.5,1,6.8c0,2.4-0.3,4.7-1,6.9c-0.7,2.2-1.6,4.2-3,5.8s-2.9,3-4.9,4.1c-1.9,1-4.2,1.5-6.7,1.5
		C495.8,450,493.6,449.5,491.6,448.5z M489.6,442.1c1,1.4,2.2,2.6,3.6,3.4s3.2,1.3,5.1,1.3c2,0,3.7-0.5,5.2-1.4
		c1.5-0.9,2.7-2.1,3.6-3.5c1-1.4,1.7-3.1,2.2-4.9c0.5-1.8,0.7-3.6,0.7-5.5c0-1.8-0.2-3.7-0.7-5.4c-0.5-1.8-1.2-3.4-2.2-4.8
		c-1-1.4-2.2-2.5-3.6-3.4c-1.5-0.9-3.2-1.3-5.2-1.3c-2,0-3.7,0.4-5.2,1.3c-1.5,0.9-2.7,2-3.6,3.4c-1,1.4-1.7,3-2.2,4.7
		c-0.5,1.8-0.7,3.6-0.7,5.4c0,1.9,0.2,3.8,0.7,5.6C487.9,439,488.6,440.6,489.6,442.1z"/>
	<path class="st6" d="M528.9,449.2v-34.7h3.5l0.3,3.2c1.5-1.1,3.1-2.1,4.9-2.9c1.8-0.8,4.1-1.2,6.7-1.2c8.5,0,12.8,4.6,12.8,13.9
		v21.8h-3.8V427c0-3.2-0.8-5.7-2.3-7.5c-1.6-1.8-3.9-2.7-7.2-2.7c-2.3,0-4.4,0.5-6.2,1.4c-1.8,0.9-3.4,2-4.9,3.1v27.9H528.9z"/>
	<path class="st6" d="M573.5,449.2v-48.7h3.8v48.7H573.5z"/>
	<path class="st6" d="M595.8,407c-0.7,0-1.3-0.3-1.9-0.9c-0.5-0.6-0.8-1.4-0.8-2.3c0-0.9,0.3-1.7,0.8-2.3c0.5-0.6,1.1-0.9,1.9-0.9
		c0.8,0,1.4,0.3,2,0.9s0.8,1.4,0.8,2.3c0,1-0.3,1.8-0.8,2.4C597.3,406.7,596.6,407,595.8,407z M593.9,449.2v-34.7h3.9v34.7H593.9z"
		/>
	<path class="st6" d="M614.5,449.2v-34.7h3.5l0.3,3.2c1.5-1.1,3.1-2.1,4.9-2.9c1.8-0.8,4.1-1.2,6.7-1.2c8.5,0,12.8,4.6,12.8,13.9
		v21.8h-3.8V427c0-3.2-0.8-5.7-2.3-7.5c-1.6-1.8-3.9-2.7-7.2-2.7c-2.3,0-4.4,0.5-6.2,1.4c-1.8,0.9-3.4,2-4.9,3.1v27.9H614.5z"/>
	<path class="st6" d="M661.1,431.2c0,4.9,1,8.7,3.1,11.5c2.1,2.7,5.1,4.1,9.1,4.1c2.5,0,4.5-0.6,6.1-1.8c1.6-1.2,2.9-2.7,3.9-4.5
		l2.8,1.8c-0.6,1-1.3,2-2,2.9c-0.8,0.9-1.7,1.8-2.7,2.5c-1,0.7-2.3,1.3-3.6,1.7s-2.9,0.6-4.7,0.6c-5,0-8.8-1.6-11.6-4.8
		c-2.8-3.2-4.2-7.7-4.2-13.5c0-2.8,0.4-5.4,1.1-7.6s1.8-4.2,3.1-5.7c1.3-1.6,2.9-2.8,4.7-3.6c1.8-0.9,3.8-1.3,6-1.3
		c2.3,0,4.4,0.4,6.2,1.3c1.8,0.9,3.3,2,4.5,3.6c1.2,1.5,2.1,3.4,2.8,5.6c0.6,2.2,1,4.6,1.1,7.2H661.1z M682.6,428
		c-0.1-1.9-0.5-3.6-1.1-5.1c-0.6-1.4-1.4-2.6-2.4-3.5c-0.9-0.9-2-1.6-3.2-2c-1.2-0.4-2.4-0.7-3.6-0.7c-2.8,0-5.2,0.9-7.2,2.7
		c-2,1.8-3.3,4.6-3.8,8.6H682.6z"/>
</g>
</svg>
