<svg version="1.2" baseProfile="tiny-ps" xmlns="http://www.w3.org/2000/svg" viewBox="0 0 600 235" width="600" height="235">
	<title>Status            </title>
	<defs>
		<linearGradient id="grd1" gradientUnits="userSpaceOnUse"  x1="-0.747" y1="-1.42" x2="599.834" y2="233.474">
			<stop offset="0" stop-color="#273873"  />
			<stop offset="1" stop-color="#2b3765"  />
		</linearGradient>
	</defs>
	<style>
		tspan { white-space:pre }
		.shp0 { fill: url(#grd1);stroke: #707070 } 
		.shp1 { fill: #344582 } 
	</style>
	<g id="Status            ">
		<path id="Rectangle 1" class="shp0" d="M-0.75 -1.23L599.25 -2.71L599.83 233.28L-0.16 234.77L-0.75 -1.23Z" />
		<g id="OBJECTS">
			<g id="Group 5">
				<path id="Path 7" class="shp1" d="M278 -157.68C257.3 -142.55 240.86 -108.77 235.46 -78.54C232.65 -62.84 225.84 -24.79 246.96 2.75C267.75 29.87 293.82 18.39 322.84 44.62C350.47 69.59 342.82 94.44 360.69 130.24C387.38 183.73 457.03 233.58 515.88 222.06C581.82 209.16 625.69 120.86 621.11 51.49C610.87 -103.84 354.48 -213.59 278 -157.68Z" />
			</g>
			<g id="Group 6">
				<path id="Ellipse 2" class="shp1" d="M258.55 101.33C253.39 101.34 249.21 97.18 249.2 92.02C249.18 86.86 253.34 82.68 258.51 82.66C263.67 82.65 267.85 86.81 267.86 91.97C267.87 97.13 263.71 101.32 258.55 101.33Z" />
			</g>
			<g id="Group 9">
				<path id="Path 10" class="shp1" d="M203.7 63.75C200.13 63.76 196.69 61.78 195.01 58.35L139.27 -55.27C136.93 -60.05 138.9 -65.84 143.68 -68.18C148.47 -70.53 154.25 -68.55 156.6 -63.77L212.34 49.85C214.68 54.64 212.71 60.42 207.92 62.76C206.56 63.43 205.12 63.75 203.7 63.75Z" />
			</g>
			<g id="Group 11">
				<path id="Path 12" class="shp1" d="M245.78 76.59C242.2 76.6 238.76 74.61 237.09 71.19L161.31 -83.29C158.96 -88.07 160.93 -93.85 165.72 -96.2C170.5 -98.55 176.28 -96.57 178.63 -91.79L254.41 62.69C256.76 67.47 254.78 73.26 250 75.6C248.64 76.27 247.2 76.59 245.78 76.59Z" />
			</g>
		</g>
		<g id="Group 13">
			<path id="Path 10" class="shp1" d="M74.11 125.61C74.42 129.17 72.73 132.76 69.46 134.73L-39.03 199.89C-43.6 202.63 -49.53 201.15 -52.27 196.58C-55.01 192.02 -53.53 186.09 -48.97 183.35L59.53 118.18C64.09 115.44 70.02 116.92 72.77 121.49C73.55 122.78 73.98 124.19 74.11 125.61Z" />
		</g>
		<g id="Group 14">
			<path id="Path 12" class="shp1" d="M82.7 80.27C83.01 83.83 81.32 87.43 78.05 89.39L-69.45 177.98C-74.02 180.72 -79.95 179.24 -82.69 174.68C-85.43 170.11 -83.95 164.18 -79.39 161.44L68.12 72.85C72.69 70.1 78.61 71.58 81.36 76.15C82.14 77.45 82.57 78.86 82.7 80.27Z" />
		</g>
	</g>
</svg>