<svg xmlns="http://www.w3.org/2000/svg" viewBox="0 0 181.42 225.55"><path d="M38.32 18.5a77.11 77.11 0 0117.23 11C55 27 53.1 14.81 52 7.23c5.71 4 19 13.17 23.32 16.16C77.09 17.91 83.25 0 83.25 0s11.11 18 13.01 21c2.33-2.43 15.63-17.22 19.06-21 .58 8.51 1.37 20.69 1.56 22.52a74.88 74.88 0 0114.3-14.63c-3.7 7.29-5.46 17.35-6.25 25.43a97.95 97.95 0 00-74.6 9.1c-2.59-7.8-6.63-17.51-12.01-23.92zm102.17 101.37v-12.53a42.12 42.12 0 01-11.58-6.44c-12 1.82-26.55 13.9-26.55 13.9s4.92 9.32 10.29 19.37c9.44 1.3 23.35-10.61 27.84-14.3zm12.08 22.72a23.93 23.93 0 00-5.07-10l-9.36.23s-12.64 10.86-20.34 11.11c0 0 4.24 7.9 6.37 12 4.25-.92 11.71-4.27 14.72-7.76a45 45 0 011.6 14c4.22-2.5 10.04-9.12 12.08-19.58zm3.84-41.18a60.65 60.65 0 01-8.73 6.18v12.58c3.39 3.77 6.73 6.9 9.22 12.58 4.77-8.51 3.88-21.05-.49-31.34zm1-11.22l.74-5.72c.24-3.15-.56-8.37-5-13.79-5.47-6.14-19.22-16-25.78-18.4 0 0-.55 6.33-2.8 9.38-13.07-9.44-19.49-11.8-19.49-11.8-14.36 2-23.59 7.59-28.6 11.94l4.37 3.71c-8.65 2.67-14.27 10.11-14.27 10.11l7.73 1.22s-.79 9 10.49 14.66c9.65 4.83 23.55-1.17 36.63 4.08C112.89 85.65 107 81.21 107 81.21a34.6 34.6 0 00-5.83-.69c-3 0-7.48.61-12.4-1.3a47 47 0 01-7.22-3.88 29.11 29.11 0 0114.85-7.57 50.49 50.49 0 0114.26 6.9 12.81 12.81 0 018.56-4s-4.33 4-3 9a161.56 161.56 0 0113.13 13.65c7-3.82 22.08-2.94 25.19.66-3.94-5.1-9.61-9.36-14-13-.54-1.91-5.33-8.58-6.14-9.19a25.72 25.72 0 018.62 5 11.14 11.14 0 016.34-4.11 10.24 10.24 0 013.52 7.18 9.76 9.76 0 01-2.73 2.31l7.36 8 .74-5.72m6.6 10.39c11.23 20.75 14 45.61 6.16 70.38-.47-.53-6.41-7.17-8.87-9.89-1.56 24.22-8.68 43-29.49 58.92 0 0-2-7.6-3.14-12.37-34.3 25.15-63.79 13.65-72.08 9.51 6.42-29.43 1.45-46.34-2.84-59.22-9.13 15-18.49 26.65-27.82 34.51-6.37-14.9-6.87-42.59-1.71-58.95-1.71.46-11.79 3.65-17.38 5.34C9.87 118.08 19.8 98 30.28 88c-1.83-.33-7.21-1.09-11.46-1.8C21.44 80.83 29 70.93 40.69 61.63c-.33 6.55 2.09 14.36 9.49 18.11-4.69-8.23-5.26-18.39-.37-23.66s13.19-3.48 18.42.64A17.32 17.32 0 0062 48.37a89.6 89.6 0 0152.13-7.6 71 71 0 018.19 8.81 33.8 33.8 0 00-.69-7.35 111.85 111.85 0 0125.54 9.63c-15.74-15.7-47.64-20.43-74.25-12.8A103.09 103.09 0 0055.19 46c-5.87.07-9.65 3.66-11.81 6.85C26.34 64.14 13.85 79 7.84 91.46c1.33.29 5.37.79 9.1 1.44C9.33 103.76-.62 124.31 0 142.76c1.73-.52 11-3.37 15.59-4.85-2.44 16.28-1.73 43.63 8.84 59.27 13.3-9.42 21-19.32 27.41-28.25 1.65 8 3.26 22.33-2.41 46 4.6 3.55 37.94 21.06 75.65-1.82l3.16 12.43 4.07-2.65c23-14.91 31.77-35.05 34.84-51.44 1.06 1.17 5.23 5.73 6.73 7.26 5.78-15.71 17.3-53.49-9.09-83.85z" fill="#fff"/></svg>