<svg version="1.2" baseProfile="tiny-ps" xmlns="http://www.w3.org/2000/svg" viewBox="0 0 1383 392" width="1800" height="510">
	<title>Path 36-svg</title>
	<defs>
		<clipPath clipPathUnits="userSpaceOnUse" id="cp1">
			<path d="M3 -2L1373 -2C1381.29 -2 1388 4.7 1388 13L1388 374C1388 382.29 1381.29 389 1373 389L3 389C-5.3 389 -12 382.29 -12 374L-12 13C-12 4.7 -5.3 -2 3 -2Z" />
		</clipPath>
	</defs>
	<style>
		tspan { white-space:pre }
		.shp0 { fill: #8fd0ba } 
		.shp1 { fill: #69af97 } 
	</style>
	<g id="fantacy game">
		<path id="Path 36" class="shp0" d="M3 -2L1373 -2C1381.28 -2 1388 4.72 1388 13L1388 377C1388 385.28 1381.28 392 1373 392L3 392C-5.28 392 -12 385.28 -12 377L-12 13C-12 4.72 -5.28 -2 3 -2Z" />
		<g id="Clip-Path: Mask Group 2" clip-path="url(#cp1)">
			<g id="Mask Group 2">
				<g id="OBJECTS">
					<g id="Group 5">
						<path id="Path 7" class="shp1" d="M942.33 -179.93C910.58 -156.84 885.28 -105.17 876.88 -58.89C872.52 -34.86 861.96 23.38 894.19 65.64C925.92 107.25 965.89 89.77 1010.24 130.04C1052.46 168.38 1040.64 206.41 1067.87 261.31C1108.55 343.32 1215.02 419.93 1305.19 402.51C1406.22 383 1473.73 247.95 1466.99 141.7C1451.9 -96.22 1059.67 -265.26 942.33 -179.93Z" />
					</g>
					<g id="Group 6">
						<path id="Ellipse 2" class="shp1" d="M911.57 216.65C903.67 216.65 897.28 210.26 897.28 202.36C897.28 194.45 903.67 188.06 911.57 188.06C919.47 188.06 925.86 194.45 925.86 202.36C925.86 210.26 919.47 216.65 911.57 216.65Z" />
					</g>
					<g id="Group 9">
						<path id="Path 10" class="shp1" d="M827.72 158.89C822.25 158.89 816.99 155.84 814.43 150.59L729.5 -23.62C725.92 -30.96 728.97 -39.8 736.3 -43.38C743.64 -46.95 752.48 -43.91 756.06 -36.57L840.99 137.64C844.57 144.98 841.52 153.82 834.18 157.4C832.1 158.41 829.89 158.89 827.72 158.89Z" />
					</g>
					<g id="Group 11">
						<path id="Path 12" class="shp1" d="M892.1 178.71C886.63 178.71 881.37 175.66 878.81 170.41L763.35 -66.44C759.77 -73.78 762.82 -82.62 770.15 -86.2C777.49 -89.78 786.33 -86.73 789.91 -79.39L905.37 157.46C908.95 164.8 905.9 173.64 898.57 177.22C896.48 178.23 894.28 178.71 892.1 178.71Z" />
					</g>
				</g>
			</g>
		</g>
	</g>
</svg>